<?xml version="1.0" standalone="no"?>
<!DOCTYPE svg PUBLIC "-//W3C//DTD SVG 20010904//EN"
 "http://www.w3.org/TR/2001/REC-SVG-20010904/DTD/svg10.dtd">
<svg version="1.0" xmlns="http://www.w3.org/2000/svg"
 width="700.000000pt" height="700.000000pt" viewBox="0 0 700.000000 700.000000"
 preserveAspectRatio="xMidYMid meet">
<metadata>
Created by potrace 1.11, written by Peter Selinger 2001-2013
</metadata>
<g transform="translate(0.000000,700.000000) scale(0.100000,-0.100000)"
fill="#000000" stroke="none">
<path d="M460 6993 c-101 -17 -202 -67 -278 -138 -71 -65 -115 -131 -151 -223
l-26 -67 -3 -3030 c-2 -2736 -1 -3037 13 -3102 42 -189 178 -341 363 -405 l67
-23 3055 0 3055 0 67 23 c185 64 321 216 363 405 14 65 15 366 13 3102 l-3
3030 -26 67 c-36 92 -80 158 -151 223 -62 58 -104 83 -198 119 l-55 21 -3040
1 c-1672 1 -3051 -1 -3065 -3z m3455 -1052 c794 -142 1453 -634 1800 -1345
118 -242 191 -467 230 -716 26 -162 31 -495 11 -660 -132 -1075 -916 -1928
-1971 -2144 -171 -35 -288 -46 -499 -46 -465 0 -883 117 -1272 355 -641 392
-1069 1053 -1170 1805 -22 167 -22 463 0 630 150 1116 1010 1975 2136 2134
161 23 576 16 735 -13z"/>
<path d="M3365 4206 c-255 -49 -464 -231 -552 -481 -25 -73 -28 -92 -28 -225
0 -133 3 -152 28 -225 66 -187 213 -351 385 -428 100 -45 177 -61 297 -61 206
0 352 61 501 209 147 146 214 305 214 505 0 323 -212 603 -522 690 -95 27
-233 33 -323 16z"/>
<path d="M1390 3463 c0 -173 44 -422 110 -625 176 -535 559 -976 1065 -1223
598 -292 1292 -288 1880 10 673 341 1102 999 1151 1768 l7 107 -530 0 -530 0
-6 -87 c-31 -434 -351 -814 -783 -930 -87 -24 -118 -27 -259 -27 -133 0 -175
3 -248 22 -442 111 -769 493 -804 939 l-6 83 -523 0 -524 0 0 -37z"/>
</g>
</svg>
