<svg width="128" height="128" viewBox="0 0 128 128" fill="none" xmlns="http://www.w3.org/2000/svg">
<rect width="128" height="128" rx="10" fill="#D33737"/>
<path d="M109.21 64C109.21 38.9463 88.958 18.6946 63.9739 18.7642C38.9898 18.8338 18.6685 39.0159 18.7381 64C18.8077 88.9841 38.9898 109.305 63.9739 109.236C88.958 109.166 109.14 88.9841 109.21 64ZM63.9043 50.8468C71.1421 50.8468 77.0575 56.7623 77.0575 64C77.0575 71.2377 71.1421 77.1532 63.9043 77.1532C56.6666 77.1532 50.7511 71.2377 50.7511 64C50.7511 56.7623 56.6666 50.8468 63.9043 50.8468ZM63.9043 102.485C42.6087 102.485 25.4191 85.2956 25.4191 64L44.6269 64C44.6269 74.5782 53.2565 83.2078 63.8347 83.2078C74.4129 83.2078 83.0426 74.5782 83.0426 64L102.39 64C102.39 85.2956 85.2 102.485 63.9043 102.485Z" fill="white"/>
</svg>
